<svg width="161" height="59" viewBox="0 0 161 59" fill="none" xmlns="http://www.w3.org/2000/svg">
<path d="M3.984 13.4H11.76V47H3.984V13.4ZM30.294 36.872L26.694 40.424V47H19.206V11.384H26.694V31.544L37.638 21.176H46.566L35.814 32.12L47.526 47H38.454L30.294 36.872ZM66.402 20.792C69.602 20.792 72.178 21.752 74.13 23.672C76.114 25.592 77.106 28.44 77.106 32.216V47H69.618V33.368C69.618 31.32 69.17 29.8 68.274 28.808C67.378 27.784 66.082 27.272 64.386 27.272C62.498 27.272 60.994 27.864 59.874 29.048C58.754 30.2 58.194 31.928 58.194 34.232V47H50.706V21.176H57.858V24.2C58.85 23.112 60.082 22.28 61.554 21.704C63.026 21.096 64.642 20.792 66.402 20.792ZM94.3095 20.792C98.3095 20.792 101.382 21.752 103.526 23.672C105.67 25.56 106.742 28.424 106.742 32.264V47H99.7335V43.784C98.3255 46.184 95.7015 47.384 91.8615 47.384C89.8775 47.384 88.1495 47.048 86.6775 46.376C85.2375 45.704 84.1335 44.776 83.3655 43.592C82.5975 42.408 82.2135 41.064 82.2135 39.56C82.2135 37.16 83.1095 35.272 84.9015 33.896C86.7255 32.52 89.5255 31.832 93.3015 31.832H99.2535C99.2535 30.2 98.7575 28.952 97.7655 28.088C96.7735 27.192 95.2855 26.744 93.3015 26.744C91.9255 26.744 90.5655 26.968 89.2215 27.416C87.9095 27.832 86.7895 28.408 85.8615 29.144L83.1735 23.912C84.5815 22.92 86.2615 22.152 88.2135 21.608C90.1975 21.064 92.2295 20.792 94.3095 20.792ZM93.7335 42.344C95.0135 42.344 96.1495 42.056 97.1415 41.48C98.1335 40.872 98.8375 39.992 99.2535 38.84V36.2H94.1175C91.0455 36.2 89.5095 37.208 89.5095 39.224C89.5095 40.184 89.8775 40.952 90.6135 41.528C91.3815 42.072 92.4215 42.344 93.7335 42.344Z" fill="black"/>
<circle cx="136" cy="29" r="25" fill="#FF8447"/>
</svg>
